<?xml version="1.0" encoding="UTF-8"?>
<svg version="1.1" xmlns="http://www.w3.org/2000/svg" viewBox="550 140 520 370" width="100%" height="100%">
<path d="M0 0 C4.48419686 2.48637375 7.05469894 5.72170972 8.875 10.5 C9.86707035 16.13763056 9.13748334 20.71502444 5.875 25.5 C1.86141277 29.54648548 -1.69193903 31.63092102 -7.4375 31.75 C-11.70798167 31.6876066 -14.51981394 30.93140455 -18.125 28.5 C-22.00948797 24.39970714 -23.86570608 20.79042965 -24.5 15.1875 C-24.03335238 10.5987984 -22.79714573 7.25898176 -20.125 3.5 C-13.85759415 -1.48834343 -7.58635295 -3.25539153 0 0 Z " fill="#030303" transform="translate(564.125,273.5)"/>
<path d="M0 0 C4.75684017 2.13390961 7.4682047 4.50949078 9.77734375 9.3125 C11.2339755 15.33324457 10.99236641 19.91172452 7.77734375 25.3125 C5.8984602 27.38556984 4.11596672 28.68978202 1.77734375 30.3125 C1.15859375 30.745625 0.53984375 31.17875 -0.09765625 31.625 C-4.39408412 33.01502078 -8.23939139 33.14963897 -12.37890625 31.40234375 C-17.41119134 28.48249177 -21.08868023 25.17116841 -22.78515625 19.3984375 C-23.73129013 14.29325679 -22.81558575 10.89334211 -20.22265625 6.3125 C-14.50830235 -0.28098527 -8.51693749 -2.634413 0 0 Z " fill="#040404" transform="translate(806.22265625,324.6875)"/>
<path d="M0 0 C3.83084349 2.61193874 6.65161815 5.67823629 8.75 9.875 C9.56846249 16.3421954 8.59713235 21.56114845 4.75 26.875 C0.66568201 30.66758099 -3.28557229 31.69967389 -8.71875 32.03515625 C-12.88037372 31.77184364 -15.96730764 30.41472735 -19.25 27.875 C-23.70144261 22.3963014 -24.95085896 17.88358961 -24.25 10.875 C-22.14401006 5.82251293 -19.16738137 1.92763793 -14.20703125 -0.50390625 C-9.27397875 -2.06948579 -4.83415531 -1.67336145 0 0 Z " fill="#030303" transform="translate(564.25,325.125)"/>
<path d="M0 0 C5.48312493 2.43694441 8.62125081 6.59190356 11 12 C11.76288402 17.43554864 10.682435 21.24084113 8 26 C4.65397702 30.13605618 1.35486636 32.31078979 -3.9375 33.125 C-9.0783039 33.33626591 -12.92939102 32.15871736 -17 29 C-21.07796847 23.87639859 -22.36457381 19.69718334 -22.28125 13.28125 C-21.69180611 8.50020514 -18.85179203 5.75038822 -15.375 2.6875 C-10.47255151 -0.79581866 -5.8832108 -0.57498802 0 0 Z " fill="#030303" transform="translate(1049,272)"/>
<path d="M0 0 C4.83216883 2.12078521 7.33452513 4.55406349 9.859375 9.30078125 C11.55116966 14.37616522 11.42309367 18.62042561 9.234375 23.48828125 C6.61729793 28.29401707 3.00730309 30.58480522 -2.140625 32.30078125 C-7.96300006 32.89288719 -11.53880039 32.29369018 -16.375 28.9140625 C-20.42581004 25.21276926 -22.30329209 20.67777443 -22.640625 15.23828125 C-21.95407734 9.83171845 -20.42659632 6.30353488 -16.375 2.75390625 C-10.95824378 -1.04208827 -6.32298049 -2.06535311 0 0 Z " fill="#020202" transform="translate(1049.140625,220.69921875)"/>
<path d="M0 0 C3.65097015 3.77508245 5.78876651 6.84541839 6.3125 12.1875 C5.82475303 18.13801305 3.76047794 22.32539903 -0.5625 26.4375 C-5.44444244 29.56695028 -10.36355301 29.63311105 -16 29 C-21.31565158 26.34217421 -25.10236008 22.69291975 -27 17 C-27.84087671 10.90965009 -26.9761941 6.69940151 -23.4296875 1.66015625 C-17.3167055 -5.43825181 -7.18051133 -5.62796834 0 0 Z " fill="#030303" transform="translate(1054,327)"/>
<path d="M0 0 C4.61452894 2.46638616 7.73310119 5.62245238 10.0625 10.28125 C10.78160796 17.38980901 10.57642888 22.60990346 6.0625 28.28125 C1.29235957 32.00195953 -2.47398215 32.94442485 -8.5078125 32.66015625 C-13.90171487 31.81898498 -16.94520615 29.52797817 -20.375 25.21875 C-22.7389659 20.47035097 -22.7097208 15.4449891 -21.9375 10.28125 C-19.75223658 5.82978749 -16.9980479 3.09239855 -12.9375 0.28125 C-8.59152177 -1.16740941 -4.33374753 -1.60768053 0 0 Z " fill="#030303" transform="translate(805.9375,272.71875)"/>
<path d="M0 0 C4.33101913 2.22151412 6.91327158 4.91041584 8.875 9.3046875 C9.63188793 14.98524846 9.67465054 19.67682747 7.125 24.8671875 C3.56509368 28.72375268 0.75908339 31.02850369 -4.61328125 31.54296875 C-10.64643861 31.70151645 -14.49051304 31.60006566 -19.125 27.3046875 C-22.75333663 23.48538578 -23.43500458 20.42189744 -23.625 15.3046875 C-23.43500458 10.18747756 -22.75333663 7.12398922 -19.125 3.3046875 C-13.72004397 -1.70478394 -6.90074867 -2.25796556 0 0 Z " fill="#030303" transform="translate(807.125,221.6953125)"/>
<path d="M0 0 C5.00230198 2.45567552 8.49851535 5.9970307 11 11 C11.59057744 16.67862925 11.29370905 21.16922672 8 26 C3.79473011 30.13798557 0.66110361 32.15906972 -5.25 32.3125 C-10.33937369 32.25927779 -13.12381874 31.49801724 -17 28 C-20.89754428 23.78643861 -21.83512845 21.22576588 -22.25 15.625 C-21.93198404 11.01376861 -20.87486443 7.85486587 -17.53515625 4.55078125 C-11.77996451 -0.36012809 -7.41681157 -0.75531886 0 0 Z " fill="#020202" transform="translate(562,221)"/>
<path d="M0 0 C4.54147146 2.1431663 8.17643484 4.14317793 10 9 C10.72320767 13.62516534 10.4121396 17.14401775 8.375 21.375 C5.20214614 24.88183848 2.63448473 26.8463993 -2.2109375 27.12890625 C-6.48996769 26.89434147 -8.53599048 26.37515664 -11.9375 23.625 C-15.44690879 19.15847972 -16.45711378 16.84374848 -16.3125 11.28515625 C-15.81912092 7.67732172 -14.41635627 5.67070956 -12 3 C-7.94153843 0.35317724 -4.81604946 -0.77056791 0 0 Z " fill="#060606" transform="translate(836,301)"/>
<path d="M0 0 C3.26455702 2.53909991 4.93882879 4.69702895 5.5703125 8.86328125 C5.77593697 12.94149985 5.42125714 15.3943121 3.625 19.125 C0.03174634 23.09649089 -2.95011818 24.52501477 -8.25 25.1875 C-13.39442984 24.54444627 -16.28772194 22.45599107 -19.625 18.5625 C-21.23324821 14.54187947 -21.4127128 11.01997909 -20.75 6.75 C-18.84586499 2.63706839 -17.3498232 1.10083998 -13.4375 -1.1875 C-8.30840192 -2.66537572 -4.82953693 -2.19524406 0 0 Z " fill="#050505" transform="translate(774.75,354.25)"/>
<path d="M0 0 C3.23551706 2.11011982 4.85394116 3.78091174 7 7 C7.64817054 11.34615406 8.00465176 15.9666809 6.01953125 19.984375 C2.6444964 24.17980294 -0.14429688 25.79381076 -5.375 26.375 C-10.66908258 25.82733629 -14.6244578 23.08618266 -18 19 C-19.20643566 15.38069302 -19.32268559 12.80768995 -19 9 C-14.61321918 0.85312133 -9.17860186 -2.34843134 0 0 Z " fill="#050505" transform="translate(1016,353)"/>
<path d="M0 0 C3.86632388 2.39582964 6.54791371 4.64374113 8 9 C8.53923825 14.71592544 7.63434458 17.55802329 4 22 C1.10519045 24.9981956 -1.83794183 25.68532978 -5.97265625 26.0703125 C-9.97773531 25.93140802 -12.81195818 23.98320702 -15.8125 21.5 C-18.59318987 17.98754964 -18.38899844 13.7856558 -18.3515625 9.51171875 C-17.77192476 5.37052914 -16.06671673 3.7879243 -13 1 C-8.61749891 -1.66369676 -4.83814866 -1.41485356 0 0 Z " fill="#050505" transform="translate(595,302)"/>
<path d="M0 0 C4.38773175 2.19386588 7.09334197 4.44520582 9 9 C9.64467431 13.9732018 8.9212369 17.34414189 6.2578125 21.48828125 C3.15994768 25.21149146 -0.30833126 25.90119018 -4.9375 26.5625 C-9.27872324 26.42057539 -11.57978499 24.40539639 -14.65234375 21.5078125 C-17.79796964 17.9883586 -17.32651432 14.21706337 -17.28515625 9.703125 C-16.90033774 6.05525636 -15.76015463 4.37679982 -13 2 C-8.7283761 -0.51114292 -4.85031649 -0.68207576 0 0 Z " fill="#050505" transform="translate(594,250)"/>
<path d="M0 0 C3.85544798 1.99657127 5.59805092 3.39707638 8 7 C8.64817054 11.34615406 9.00465176 15.9666809 7.01953125 19.984375 C3.66869466 24.14972264 0.88121169 25.78703264 -4.3125 26.375 C-8.72767221 25.92599944 -11.59710578 24.84014168 -15 22 C-17.9741633 17.68266618 -18.6486549 14.18923924 -18 9 C-13.62297765 0.87124421 -8.95728987 -1.29979601 0 0 Z " fill="#040404" transform="translate(1015,198)"/>
<path d="M0 0 C4.03820586 3.56864703 5.45884963 6.54579706 6.125 11.875 C5.48194627 17.01942984 3.39349107 19.91272194 -0.5 23.25 C-4.51090377 24.85436151 -8.05240837 25.05751468 -12.3125 24.375 C-16.41244964 22.28775291 -18.60340928 20.61323842 -20.3125 16.375 C-21.05972522 12.08563983 -21.2742225 8.06180666 -19.07421875 4.203125 C-13.89389669 -2.01840323 -7.39565 -3.62805472 0 0 Z " fill="#040404" transform="translate(597.3125,354.625)"/>
<path d="M0 0 C4.11639609 1.77753468 6.76553623 4.11037788 9 8 C9.68305865 12.60685109 9.56358716 16.60586335 7.8125 20.9375 C5.13686222 23.98219126 2.98322488 25.6994003 -1.11328125 26.3203125 C-5.19149985 26.52593697 -7.6443121 26.17125714 -11.375 24.375 C-15.34649089 20.78174634 -16.77501477 17.79988182 -17.4375 12.5 C-16.79222346 7.33778768 -14.70698109 4.42248424 -10.75 1.125 C-7.0550297 -0.38657876 -3.93822962 -0.58433082 0 0 Z " fill="#040404" transform="translate(1014,301)"/>
<path d="M0 0 C3.42717689 2.02543067 6.20750852 4.41501704 8 8 C8.56645111 12.64304187 8.42123314 16.12513117 6.375 20.375 C2.78174634 24.34649089 -0.20011818 25.77501477 -5.5 26.4375 C-10.66221232 25.79222346 -13.57751576 23.70698109 -16.875 19.75 C-18.38657876 16.0550297 -18.58433082 12.93822962 -18 9 C-14.5290857 0.96209319 -8.38001798 -1.77244548 0 0 Z " fill="#030303" transform="translate(838,250)"/>
<path d="M0 0 C3.43615111 2.12017834 5.80717883 4.09622164 7 8 C7.42537199 13.35968704 7.48854141 16.66939687 4 21 C1.70364637 23.57469953 0.07475631 24.84064569 -3.37109375 25.3515625 C-8.30980066 25.51300611 -12.14261897 25.38981969 -16 22 C-19.15009655 18.30678335 -19.52741985 14.91214488 -19.34765625 10.21484375 C-18.78975404 6.66056786 -17.38894889 4.6404172 -15 2 C-10.08715913 -1.54181551 -5.672626 -1.54898275 0 0 Z " fill="#030303" transform="translate(773,250)"/>
<path d="M0 0 C3.98129682 2.25464121 6.54722828 4.64168485 8 9 C8.38438818 13.68953585 8.45895659 16.06443464 6.375 20.3125 C2.80635297 24.35070586 -0.17079706 25.77134963 -5.5 26.4375 C-10.64442984 25.79444627 -13.53772194 23.70599107 -16.875 19.8125 C-18.48942639 15.77643403 -18.92637226 12.27444209 -18 8 C-13.54349046 0.66788339 -8.42522875 -1.35809657 0 0 Z " fill="#030303" transform="translate(772,198)"/>
<path d="M0 0 C3.47520779 2.24636179 5.03178704 4.33966956 6.25 8.375 C6.5289539 13.23054139 5.91535787 17.04476595 2.8125 20.875 C-1.1625713 24.75311834 -3.82379268 24.71457146 -9.203125 24.66015625 C-12.91066516 24.24504823 -15.00861356 22.8422478 -17.75 20.375 C-20.47395436 15.94503962 -20.53896549 11.4275669 -19.75 6.375 C-18.10933484 3.17210786 -15.7741932 1.12607501 -12.875 -1 C-8.24678083 -2.36124093 -4.28583834 -2.17463256 0 0 Z " fill="#040404" transform="translate(596.75,199.625)"/>
<path d="M0 0 C4.36045847 2.22136563 7.13277421 4.43567029 9 9 C9.59255496 13.04912559 9.42788339 16.08310702 7.6875 19.8125 C4.75270187 23.61686795 2.92573851 25.55206717 -2.015625 26.30859375 C-6.65879958 26.57646921 -9.3621234 26.22407468 -13 23.1875 C-16.31521019 20.07949045 -16.9359821 17.78101841 -17.3125 13.1875 C-17.24803379 8.80379803 -15.88627274 6.35431697 -13 3 C-9.05487821 -0.28760149 -4.99255392 -0.88103893 0 0 Z " fill="#020202" transform="translate(837,353)"/>
<path d="M0 0 C4.36045847 2.22136563 7.13277421 4.43567029 9 9 C9.53635899 13.82723092 9.52017901 15.97890786 7.3125 20.3125 C3.76842345 24.43129166 1.04274898 26.1485803 -4.375 26.5625 C-9.00398271 26.42316607 -11.37880357 24.70737165 -14.6875 21.60546875 C-17.29541781 18.41542643 -17.27389222 14.98518013 -17.22265625 10.99609375 C-16.7553073 6.80635139 -14.16035137 3.63362614 -11 1 C-7.27148658 -0.24283781 -3.87253239 -0.5280726 0 0 Z " fill="#030303" transform="translate(771,301)"/>
<path d="M0 0 C3.92465988 2.1132784 6.63811003 4.22914397 9 8 C9.90955744 12.96569198 9.50377381 16.99245239 7.25 21.5 C4.5585655 24.49048278 2.61281165 25.74716649 -1.3671875 26.37109375 C-5.7346323 26.4867426 -8.98636013 26.56264275 -12.5 23.75 C-15.83767584 20.07855657 -16.86239577 18.51364648 -17.3125 13.5625 C-16.81763961 7.9210916 -14.18903176 4.66540279 -10 1 C-6.38069302 -0.20643566 -3.80768995 -0.32268559 0 0 Z " fill="#040404" transform="translate(1014,249)"/>
<path d="M0 0 C3.45211024 2.30140683 4.9826251 4.1448704 6.8125 7.875 C7.48788521 11.74518491 7.19912073 14.97966778 5.625 18.625 C0.92894489 24.45458565 0.92894489 24.45458565 -3.48828125 25.33203125 C-8.34843924 25.6491584 -11.44174869 25.21117788 -15.25 22.0625 C-18.51159083 18.9543958 -19.12708349 16.61208138 -19.5 12.0625 C-19.43553379 7.67879803 -18.07377274 5.22931697 -15.1875 1.875 C-10.35049215 -2.04689826 -5.76079882 -2.03322311 0 0 Z " fill="#020202" transform="translate(839.1875,199.125)"/>
<path d="M0 0 C3.50290345 3.06504052 4.82221283 4.89376872 5.5625 9.5 C4.9051093 13.59043104 3.59081908 15.79957644 1 19 C-2.47263273 20.73631636 -6.21193013 20.60190402 -10 20 C-12.75569447 17.81840855 -14.43588747 16.12822506 -16 13 C-16.38482057 8.92090194 -16.44121857 6.70910127 -14.25 3.1875 C-9.84423437 -1.09588325 -6.00405822 -2.02116811 0 0 Z " fill="#060606" transform="translate(746,330)"/>
<path d="M0 0 C4.12060758 1.77935327 6.2942789 3.83045953 8 8 C7.93024524 11.90626662 7.30502021 14.41537793 5.5 17.875 C2.40558979 20.50524867 0.25198057 20.96047812 -3.7421875 21.2109375 C-7.28632835 20.879824 -9.37439311 19.29740603 -12 17 C-13.72869779 13.54260443 -13.48966895 9.78024432 -13 6 C-9.39669759 0.23471614 -6.65938858 -0.45148397 0 0 Z " fill="#060606" transform="translate(619,175)"/>
<path d="M0 0 C2.63024867 3.09441021 3.08547812 5.24801943 3.3359375 9.2421875 C3.004824 12.78632835 1.42240603 14.87439311 -0.875 17.5 C-4.33515135 19.23007568 -8.09172555 18.9835273 -11.875 18.5 C-15.37390004 16.38608123 -16.58078686 15.38263941 -17.875 11.5 C-18.25435127 7.40300628 -18.32428789 5.22206983 -16.125 1.6875 C-10.95395206 -3.33990772 -6.50119874 -3.39192978 0 0 Z " fill="#060606" transform="translate(866.875,383.5)"/>
<path d="M0 0 C3.2561101 1.89446406 5.3487671 3.30400843 6.73046875 6.90234375 C7.49776352 10.86036925 7.15298259 12.69403482 5.3125 16.375 C2.23262188 19.87107787 0.6632396 20.82305962 -3.9375 21.3125 C-7.43355571 20.95575962 -9.20520785 20.09609412 -12 18 C-14.6790573 13.98141405 -14.69610694 10.72358279 -14 6 C-10.41017261 0.25627618 -6.66214612 -1.06297693 0 0 Z " fill="#050505" transform="translate(620,330)"/>
<path d="M0 0 C2.6258382 1.78870171 3.34201385 3.11189509 5 6 C5.55263322 9.93751167 5.36220775 12.18503256 3.75 15.8125 C1.81803152 18.2274606 0.95224902 19.12230435 -2 20 C-7.14649682 20.57183298 -7.14649682 20.57183298 -10 20 C-13.883836 16.85987727 -15.8023937 14.71258797 -16.375 9.75 C-15.88072704 4.80727042 -14.46171699 3.46171699 -11 0 C-7.46077805 -1.76961098 -3.72473277 -1.03393444 0 0 Z " fill="#060606" transform="translate(865,279)"/>
<path d="M0 0 C3.01333109 1.62256289 5.26132782 3.10074691 7.4375 5.75 C8.33375314 9.33501256 8.16003788 12.53361463 7 16 C4.55174675 18.86624771 2.75122265 20.61349969 -1 21.44140625 C-4.69268247 21.65821147 -6.83081878 21.10798801 -9.9375 19.125 C-13.3215355 15.63841797 -13.38966392 12.96407286 -13.359375 8.26171875 C-12.78943134 4.67479071 -10.79773951 3.13161106 -8 1 C-5.13391871 -0.43304064 -3.18699217 -0.30644155 0 0 Z " fill="#060606" transform="translate(619,278)"/>
<path d="M0 0 C3 2.4375 3 2.4375 5 5 C5.33 5.33 5.66 5.66 6 6 C6.58638743 13.03664921 6.58638743 13.03664921 4.25 16.875 C1.16812992 19.78565508 -0.68547671 20.79996385 -4.875 21.4375 C-8.24669371 20.96546288 -10.28177282 20.01456642 -12.796875 17.69140625 C-15.11289421 14.43544417 -15.31848157 10.89962989 -15 7 C-12.0557893 0.08110487 -6.98622265 -1.25016616 0 0 Z " fill="#060606" transform="translate(745,278)"/>
<path d="M0 0 C5.53846154 3.07692308 5.53846154 3.07692308 7 6 C7.42071592 9.05920574 7.48514117 11.9467746 7 15 C4.81840855 17.75569447 3.12822506 19.43588747 0 21 C-4.07909806 21.38482057 -6.29089873 21.44121857 -9.8125 19.25 C-13.21387283 15.75144509 -13.21387283 15.75144509 -14 13 C-13.80743088 7.70434916 -12.69046589 4.80229819 -9 1 C-5.89046621 -0.5547669 -3.43733239 -0.28644437 0 0 Z " fill="#050505" transform="translate(987,226)"/>
<path d="M0 0 C2.75569447 2.18159145 4.43588747 3.87177494 6 7 C6.12272016 11.5406461 5.86358012 14.98402339 2.875 18.5 C-0.63111919 20.32927958 -3.0316307 21 -7 21 C-10.74669241 19.02061533 -12.64677369 17.52983947 -15 14 C-15.67226891 7.05322129 -15.67226891 7.05322129 -13.125 3.0625 C-9.24699241 -0.70144855 -5.21240222 -0.82822281 0 0 Z " fill="#060606" transform="translate(864,227)"/>
<path d="M0 0 C3.5386994 1.65139305 4.81070153 2.71605229 7 6 C7.54531842 9.06526351 7.54325893 11.93408329 7 15 C4.81840855 17.75569447 3.12822506 19.43588747 0 21 C-3.9079648 21.44408691 -5.74548146 21.13704844 -9.25 19.25 C-13.23026316 15.99342105 -13.23026316 15.99342105 -14 13 C-13.80743088 7.70434916 -12.69046589 4.80229819 -9 1 C-5.93570224 -0.53214888 -3.3834358 -0.22938548 0 0 Z " fill="#050505" transform="translate(987,381)"/>
<path d="M0 0 C3.81215241 1.69428996 5.48308675 3.14884126 7 7 C7.22213813 11.20581532 6.67253041 14.87911598 4.5 18.5 C0.78634432 20.72819341 -2.679672 21.46342619 -7 21 C-10.12940297 19.35089553 -12.39807782 17.20384436 -14 14 C-14.70153846 6.86769231 -14.70153846 6.86769231 -11.625 3.0625 C-7.531976 -0.15344743 -5.22213247 -0.35404288 0 0 Z " fill="#050505" transform="translate(863,330)"/>
<path d="M0 0 C3.08416293 2.05610862 4.68386831 3.45571068 5.44140625 7.15625 C5.65351271 11.26153629 5.33679 13.461136 3.125 17 C-0.09922086 20.03456081 -2.44452149 20.41699414 -6.89453125 20.3359375 C-10.75021408 19.72074506 -12.52633516 17.89599786 -15 15 C-16.0562862 12.24913701 -16.34930219 9.92612165 -16 7 C-14.4165167 3.8330334 -12.97595724 1.80167916 -10.25 -0.4375 C-6.68393635 -1.32901591 -3.4737169 -1.03867575 0 0 Z " fill="#050505" transform="translate(989,330)"/>
<path d="M0 0 C2.97239241 1.78476241 5.42604027 3.85208055 7 7 C7.67660495 12.86390959 7.67660495 12.86390959 5.953125 15.7578125 C3.02250123 19.32627792 1.32898658 20.84665539 -3.25 21.375 C-8.19272958 20.88072704 -9.53828301 19.46171699 -13 16 C-14.53214888 12.93570224 -14.22938548 10.3834358 -14 7 C-12.74544028 4.17724064 -11.71615278 2.53711459 -9.25 0.6875 C-5.9260257 -0.32815881 -3.46313738 -0.41796486 0 0 Z " fill="#050505" transform="translate(863,175)"/>
<path d="M0 0 C2.8100346 1.79363911 4.50940468 3.01880935 6 6 C6.68128376 12.81283762 6.68128376 12.81283762 4.953125 15.82421875 C2.2637801 19.09098182 0.4656668 20.83344695 -3.75 21.3125 C-7.85767229 20.91753151 -9.82926614 19.5942368 -13 17 C-15.25497853 14.25480874 -15 12.70529313 -15 9.0625 C-14.43999084 5.61876552 -13.85809118 4.83386285 -11.4375 2 C-6.96110202 -0.60444974 -5.10576877 -0.72939554 0 0 Z " fill="#060606" transform="translate(988,278)"/>
<path d="M0 0 C2.97672584 1.77280561 5.42804007 3.85608015 7 7 C7.67660495 12.86390959 7.67660495 12.86390959 5.953125 15.7578125 C3.02250123 19.32627792 1.32898658 20.84665539 -3.25 21.375 C-8.19272958 20.88072704 -9.53828301 19.46171699 -13 16 C-14.57455739 12.85088521 -14.34799118 10.47991184 -14 7 C-10.42200413 0.99217111 -6.89711987 -0.68971199 0 0 Z " fill="#040404" transform="translate(744,226)"/>
<path d="M0 0 C2.86624771 2.44825325 4.61349969 4.24877735 5.44140625 8 C5.65821147 11.69268247 5.10798801 13.83081878 3.125 16.9375 C0.26777694 19.71068709 -1.42300746 20.20503898 -5.3125 20.375 C-8.89944824 20.31723916 -9.88749122 20.07500585 -13 18 C-15.67309907 13.9903514 -16 11.82843714 -16 7 C-14.72774704 3.8193676 -13.39802885 2.34116758 -10.8125 0.125 C-6.92518438 -1.42992625 -3.94597843 -1.4160971 0 0 Z " fill="#060606" transform="translate(989,175)"/>
<path d="M0 0 C2.87029869 1.79393668 4.49131638 2.98263276 6 6 C6.5811138 13.08958838 6.5811138 13.08958838 4.125 16.9375 C0.63841797 20.3215355 -2.03592714 20.38966392 -6.73828125 20.359375 C-10.32520929 19.78943134 -11.86838894 17.79773951 -14 15 C-15.55024464 11.89951072 -15.28992015 9.42105782 -15 6 C-10.96954107 -0.18003703 -7.06173502 -0.91473252 0 0 Z " fill="#050505" transform="translate(745,175)"/>
<path d="M0 0 C4.1069779 1.81471117 6.32427902 3.81069754 8 8 C8.2519099 10.88817625 7.98028351 13.26842347 7 16 C4.55174675 18.86624771 2.75122265 20.61349969 -1 21.44140625 C-4.69268247 21.65821147 -6.83081878 21.10798801 -9.9375 19.125 C-13.05423849 15.91381488 -13.39206462 13.59211898 -13.359375 9.10546875 C-12.72418186 5.38406547 -10.66020984 3.59687151 -8 1 C-5.17998673 -0.41000664 -3.12992745 -0.24548451 0 0 Z " fill="#060606" transform="translate(619,381)"/>
<path d="M0 0 C3.73325038 2.51422985 4.74796824 4.13364082 6 8.4375 C6 12.61810309 5.40415469 14.58765141 3 18 C-0.39331233 20.39074278 -2.40827516 20.98961886 -6.5625 21.0625 C-10.09043838 19.97204632 -11.9356523 18.82544183 -14.11328125 15.80859375 C-15.74436161 12.48176464 -15.85198076 9.57831918 -15 6 C-11.49262068 -0.54710806 -7.17938424 -1.55612269 0 0 Z " fill="#050505" transform="translate(621,227)"/>
<path d="M0 0 C2.97672584 1.77280561 5.42804007 3.85608015 7 7 C7.50533836 11.37959914 7.27875307 13.51443013 5.0625 17.375 C2.19641182 20.3957918 -0.68251712 21.11425364 -4.77734375 21.28515625 C-7.71251867 20.90858724 -9.80246815 19.82643959 -11.89453125 17.72265625 C-14.06549542 14.33963434 -14.55538902 10.95020443 -14 7 C-10.73575011 0.86678048 -6.71163625 -0.67116362 0 0 Z " fill="#030303" transform="translate(744,381)"/>
<path d="M0 0 C2.5 2.125 2.5 2.125 4 5 C4.07517661 9.2850666 3.69099731 11.23003157 0.8125 14.4375 C-2.56275179 16.31263988 -4.2007634 16.71235686 -8 16 C-10.875 13.9375 -10.875 13.9375 -13 11 C-13.53416903 7.19404569 -13.55569356 5.00554073 -11.6875 1.625 C-8.08793855 -1.84124436 -4.55021891 -1.11759763 0 0 Z " fill="#080808" transform="translate(642,307)"/>
<path d="M0 0 C4.4297642 0.79102932 5.89210172 1.98974785 8.5 5.625 C9.21235686 9.4242366 8.81263988 11.06224821 6.9375 14.4375 C3.73003157 17.31599731 1.7850666 17.70017661 -2.5 17.625 C-5.30189446 15.85858828 -7.01524911 14.59450178 -8.5 11.625 C-9.03507099 7.6119676 -8.83051628 6.08571967 -6.4375 2.75 C-3.5 0.625 -3.5 0.625 0 0 Z " fill="#090909" transform="translate(880.5,202.375)"/>
<path d="M0 0 C3.80470451 0.7133821 5.41196019 1.67868421 8 4.5625 C9.0625 8 9.0625 8 9 11.5625 C7.23358828 14.36439446 5.96950178 16.07774911 3 17.5625 C-1.0130324 18.09757099 -2.53928033 17.89301628 -5.875 15.5 C-8 12.5625 -8 12.5625 -8.625 9.0625 C-7.67703424 3.75389177 -5.38444917 1.00958422 0 0 Z " fill="#090909" transform="translate(637,150.4375)"/>
<path d="M0 0 C4.43024874 0.87022743 5.91370196 2.00398461 8.5 5.6875 C9.12601538 9.65226406 9.15946039 11.68512021 6.9375 15.0625 C3.67160572 17.23976285 1.42016134 17.6875 -2.5 17.6875 C-6.28644566 15.71196313 -7.27321363 14.3678591 -8.625 10.3125 C-8.5 6.6875 -8.5 6.6875 -6.5 3.25 C-3.5 0.6875 -3.5 0.6875 0 0 Z " fill="#080808" transform="translate(962.5,253.3125)"/>
<path d="M0 0 C3.68351539 2.58629804 4.81727257 4.06975126 5.6875 8.5 C5 12 5 12 2.4375 15 C-1 17 -1 17 -4.625 17.125 C-8.6803591 15.77321363 -10.02446313 14.78644566 -12 11 C-12 7.07983866 -11.55226285 4.82839428 -9.375 1.5625 C-5.99762021 -0.65946039 -3.96476406 -0.62601538 0 0 Z " fill="#080808" transform="translate(966,409)"/>
<path d="M0 0 C2.4375 1.625 2.4375 1.625 4 4 C4.5625 7.4375 4.5625 7.4375 4 11 C1.54999553 14.38677089 0.13607554 15.78698584 -4 16.5625 C-7.80470451 15.8491179 -9.41196019 14.88381579 -12 12 C-13.0625 8.5625 -13.0625 8.5625 -13 5 C-9.25333712 -0.9429825 -6.7508412 -1.51311958 0 0 Z " fill="#070707" transform="translate(967,358)"/>
<path d="M0 0 C2.5 2.125 2.5 2.125 4 5 C4.07517661 9.2850666 3.69099731 11.23003157 0.8125 14.4375 C-2.56275179 16.31263988 -4.2007634 16.71235686 -8 16 C-10.875 13.9375 -10.875 13.9375 -13 11 C-13.5625 7.4375 -13.5625 7.4375 -13 4 C-9.01693752 -1.04521248 -6.191012 -1.49438221 0 0 Z " fill="#080808" transform="translate(724,358)"/>
<path d="M0 0 C2.375 1.625 2.375 1.625 4 4 C4.72125695 8.40768137 4.52001338 10.25937488 1.9375 13.9375 C-1 16 -1 16 -4.5 16.6875 C-8 16 -8 16 -11 13.4375 C-13 10 -13 10 -13 6.3125 C-11.64770642 1.83302752 -11.64770642 1.83302752 -9 0 C-5.41563853 -1.19478716 -3.63093708 -0.96330984 0 0 Z " fill="#070707" transform="translate(967,203)"/>
<path d="M0 0 C3.00342896 2.05497771 3.83287356 3.47633714 4.9375 6.9375 C5.0128328 10.62880732 4.24574926 12.1126081 2 15 C-1 17 -1 17 -4.4375 16.875 C-8.35686232 15.91234961 -9.79188059 15.3563415 -12 12 C-12.72125695 7.59231863 -12.52001338 5.74062512 -9.9375 2.0625 C-6.25937488 -0.52001338 -4.40768137 -0.72125695 0 0 Z " fill="#070707" transform="translate(641,203)"/>
<path d="M0 0 C3.34265205 1.20706879 3.94704566 1.92056849 6 5 C6.48324239 8.70485832 6.26337747 10.52592056 4.4375 13.8125 C1.23003157 16.69099731 -0.7149334 17.07517661 -5 17 C-7.80189446 15.23358828 -9.51524911 13.96950178 -11 11 C-11.54035146 6.94736402 -11.34199395 5.46269769 -8.875 2.125 C-5.50050447 -0.36919235 -4.09905842 -0.61049806 0 0 Z " fill="#090909" transform="translate(722,409)"/>
<path d="M0 0 C4.4297642 0.79102932 5.89210172 1.98974785 8.5 5.625 C9.21869773 9.45805454 8.82531424 11.06195612 6.875 14.4375 C3.9376557 17.1429487 2.48837044 17.70476741 -1.5 17.625 C-7.00649351 14.61201299 -7.00649351 14.61201299 -8.5 11.625 C-9.03507099 7.6119676 -8.83051628 6.08571967 -6.4375 2.75 C-3.5 0.625 -3.5 0.625 0 0 Z " fill="#080808" transform="translate(880.5,357.375)"/>
<path d="M0 0 C3.76809502 1.44310022 5.57962411 2.83826392 7.9375 6.125 C8.00694397 10.08330645 7.5074479 12.27007816 5.3125 15.5625 C1.93512021 17.78446039 -0.09773594 17.75101538 -4.0625 17.125 C-7.74601539 14.53870196 -8.87977257 13.05524874 -9.75 8.625 C-9.0625 5.125 -9.0625 5.125 -6.4375 2.125 C-3.0625 0.125 -3.0625 0.125 0 0 Z " fill="#080808" transform="translate(638.0625,253.875)"/>
<path d="M0 0 C2.5 2.125 2.5 2.125 4 5 C4 8.92016134 3.55226285 11.17160572 1.375 14.4375 C-2.00237979 16.65946039 -4.03523594 16.62601538 -8 16 C-11.38677089 13.54999553 -12.78698584 12.13607554 -13.5625 8 C-12.87642343 4.34092496 -11.57265686 2.64832324 -9 0 C-5.77839187 -1.61080407 -3.42436421 -0.82657067 0 0 Z " fill="#070707" transform="translate(724,203)"/>
<path d="M0 0 C3.48326597 0.85529699 4.97293913 2.60978164 6.97265625 5.484375 C7.59765625 8.484375 7.59765625 8.484375 6.97265625 11.484375 C4.97293913 14.35896836 3.48326597 16.11345301 0 16.96875 C-3.74624162 17.22083355 -5.667774 16.79000928 -8.52734375 14.359375 C-10.29473679 10.97187167 -10.65508945 9.2508492 -10.02734375 5.484375 C-7.61458248 0.85991589 -5.2803869 -0.35531575 0 0 Z " fill="#080808" transform="translate(721.02734375,305.515625)"/>
<path d="M0 0 C4.21796616 0.86080942 6.17690429 2.46458565 9.0625 5.625 C9.85768932 9.44190873 9.38655186 11.04170665 7.5 14.4375 C4.29253157 17.31599731 2.3475666 17.70017661 -1.9375 17.625 C-4.73939446 15.85858828 -6.45274911 14.59450178 -7.9375 11.625 C-8.47785146 7.57236402 -8.27949395 6.08769769 -5.8125 2.75 C-2.9375 0.625 -2.9375 0.625 0 0 Z " fill="#070707" transform="translate(718.9375,253.375)"/>
<path d="M0 0 C3.76809502 1.44310022 5.57962411 2.83826392 7.9375 6.125 C8.08879568 10.43692698 7.64228473 12.33966844 4.75 15.5625 C1.37474821 17.43763988 -0.2632634 17.83735686 -4.0625 17.125 C-7.68902055 14.52336569 -8.88553105 13.02593281 -9.75 8.625 C-9.0625 5.125 -9.0625 5.125 -6.4375 2.125 C-3.0625 0.125 -3.0625 0.125 0 0 Z " fill="#070707" transform="translate(638.0625,408.875)"/>
<path d="M0 0 C2.4375 1.6875 2.4375 1.6875 4 4 C4.48812105 7.90496842 4.22683908 10.71834241 2 14 C-1.51253146 16.34168764 -2.86469356 16.49623677 -7 16 C-10.74093467 13.92170296 -11.79149259 12.67458281 -13.0625 8.5625 C-12.98713481 4.26668421 -12.03450339 2.94780329 -9 0 C-5.81452856 -1.59273572 -3.39809153 -0.76164121 0 0 Z " fill="#060606" transform="translate(885,307)"/>
<path d="M0 0 C2.12890625 0.484375 2.12890625 0.484375 4.69140625 2.609375 C6.39414493 6.01485236 6.8322914 7.73298752 6.12890625 11.484375 C3.52100797 15.11962715 2.05867045 16.31834568 -2.37109375 17.109375 C-6.80085795 16.31834568 -8.26319547 15.11962715 -10.87109375 11.484375 C-11.5744789 7.73298752 -11.13633243 6.01485236 -9.43359375 2.609375 C-6.1809083 -0.08797391 -4.13789326 -0.24541047 0 0 Z " fill="#070707" transform="translate(882.87109375,254.515625)"/>
<path d="M0 0 C2.12890625 0.484375 2.12890625 0.484375 4.69140625 2.609375 C6.39414493 6.01485236 6.8322914 7.73298752 6.12890625 11.484375 C3.52100797 15.11962715 2.05867045 16.31834568 -2.37109375 17.109375 C-6.80085795 16.31834568 -8.26319547 15.11962715 -10.87109375 11.484375 C-11.5744789 7.73298752 -11.13633243 6.01485236 -9.43359375 2.609375 C-6.1809083 -0.08797391 -4.13789326 -0.24541047 0 0 Z " fill="#070707" transform="translate(882.87109375,409.515625)"/>
<path d="M0 0 C3.03379359 0.66656245 4.21477419 1.85286302 5.90234375 4.41796875 C7.07825349 8.10248593 7.23715713 9.7005115 5.58984375 13.23046875 C3.90234375 15.41796875 3.90234375 15.41796875 1.90234375 16.41796875 C-5.18337054 16.98939732 -5.18337054 16.98939732 -8.59765625 14.85546875 C-10.6907724 11.454155 -10.6491331 9.34724132 -10.09765625 5.41796875 C-7.62846913 0.58247731 -5.16636672 -0.3559694 0 0 Z " fill="#060606" transform="translate(639.09765625,357.58203125)"/>
<path d="M0 0 C4.4297642 0.79102932 5.89210172 1.98974785 8.5 5.625 C9.125 8.625 9.125 8.625 8.5 11.625 C6.50028288 14.49959336 5.01060972 16.25407801 1.52734375 17.109375 C-2.21889787 17.36145855 -4.14043025 16.93063428 -7 14.5 C-8.77801176 11.09214413 -9.20960213 9.40954468 -8.5 5.625 C-5.89210172 1.98974785 -4.4297642 0.79102932 0 0 Z " fill="#070707" transform="translate(719.5,150.375)"/>
<path d="M0 0 C2.99993115 2.54994148 3.85480459 4.12882756 4.5 8 C3.85480459 11.87117244 2.99993115 13.45005852 0 16 C-2.79985377 16.6598016 -5.19465409 16.61636963 -8 16 C-11.06458538 13.95694308 -11.82153128 12.55920198 -12.9375 9.0625 C-13.01221891 5.40127319 -12.21363944 3.8695326 -10 1 C-6.78447181 -0.60776409 -3.47794 -0.60485913 0 0 Z " fill="#060606" transform="translate(967,306)"/>
<path d="M0 0 C2.92212377 2.62241877 3.86731137 4.18728214 4.5 8.0625 C4 11 4 11 2.4375 13.3125 C-0.82089606 15.56831266 -3.04475779 16 -7 16 C-9.875 14.5 -9.875 14.5 -12 12 C-13.0625 8.5625 -13.0625 8.5625 -13 5 C-9.285162 -0.89250166 -6.71655067 -1.62123637 0 0 Z " fill="#060606" transform="translate(885,152)"/>
<path d="M0 0 C3.38677089 2.45000447 4.78698584 3.86392446 5.5625 8 C4.84202557 11.8425303 3.99097304 13.45767292 1 16 C-2.77944906 16.8209459 -5.90795859 16.47601805 -9.4375 14.9375 C-11.79259706 12.01717965 -11.93611417 9.70537805 -12 6 C-9.2551235 -0.01258663 -6.46586852 -0.65754595 0 0 Z " fill="#050505" transform="translate(966,151)"/>
<path d="M0 0 C3.4375 1 3.4375 1 5.4375 2.75 C6.75115275 5.70571868 6.56864585 6.98361106 5.4375 10 C3.75 12.375 3.75 12.375 1.4375 14 C-2.09406157 14 -3.83715462 13.67698902 -6.4375 11.25 C-7.81113504 8.50272993 -8.09312116 7.03212094 -7.5625 4 C-5.24958684 0.48437199 -4.25397332 0 0 0 Z " fill="#0D0D0D" transform="translate(946.5625,333)"/>
<path d="M0 0 C2.8125 0.875 2.8125 0.875 4.8125 2.875 C5.09172749 5.80688861 5.28393881 8.02890647 4.8125 10.875 C2.73994557 13.33136081 1.44880966 13.76364581 -1.6875 14.3125 C-5.08584723 13.71778924 -6.19991034 12.67234842 -8.1875 9.875 C-8.75 6.875 -8.75 6.875 -8.1875 3.875 C-5.4610926 0.74765033 -4.18617911 -0.16416389 0 0 Z " fill="#0C0C0C" transform="translate(947.1875,436.125)"/>
<path d="M0 0 C1.9375 1.1875 1.9375 1.1875 3 3 C3.5 5.9375 3.5 5.9375 3 9 C0.875 11.4375 0.875 11.4375 -2 13 C-5.72706873 12.85384044 -7.34211707 12.65788293 -10 10 C-10.55016181 3.06796117 -10.55016181 3.06796117 -8.9375 -0.0625 C-5.75738793 -1.60126391 -3.33749179 -0.83437295 0 0 Z " fill="#0D0D0D" transform="translate(658,386)"/>
<path d="M0 0 C3.37013879 0.67402776 4.51677007 1.7087875 6.5 4.5 C7.10975382 8.15852292 6.94543026 9.80512879 4.9375 12.9375 C2.5 14.5 2.5 14.5 -1.125 14.4375 C-4.5 13.5 -4.5 13.5 -6.5 10.5 C-6.96649698 6.84577364 -6.96996298 5.16142938 -4.8125 2.125 C-2.5 0.5 -2.5 0.5 0 0 Z " fill="#0C0C0C" transform="translate(897.5,229.5)"/>
<path d="M0 0 C3 0.5625 3 0.5625 5.4375 2.125 C7 4.5625 7 4.5625 6.9375 8.1875 C6 11.5625 6 11.5625 3 13.5625 C-2.1769158 14.10176206 -2.1769158 14.10176206 -4.8125 12.375 C-6.38861317 9.96935358 -6.93107581 8.45731608 -7 5.5625 C-5.04123295 2.0367193 -4.01266543 0.75237477 0 0 Z " fill="#0A0A0A" transform="translate(654,436.4375)"/>
<path d="M0 0 C2.33043558 3.49565336 2.58763244 4.8865729 2 9 C-0.1875 11.4375 -0.1875 11.4375 -3 13 C-5.86321294 12.93182826 -7.39807715 12.37360729 -9.8125 10.875 C-11.7234142 7.85776705 -11.43341637 5.46733097 -11 2 C-7.88980721 -1.98104677 -4.56233816 -1.18282841 0 0 Z " fill="#090909" transform="translate(707,334)"/>
<path d="M0 0 C1.9375 1.125 1.9375 1.125 3 3 C2.93298553 6.75281005 2.76887129 9.08874514 0.3125 12 C-2.83642135 13.36169572 -4.74094135 12.92103831 -8 12 C-10 10 -10 10 -10.375 6.0625 C-10.29026119 3.14960354 -10.22490881 2.28546119 -8.375 -0.0625 C-5.15632669 -1.33302894 -3.29045231 -0.98013473 0 0 Z " fill="#090909" transform="translate(658,231)"/>
<path d="M0 0 C1.9375 1.0625 1.9375 1.0625 3 3 C3.36528977 6.4093712 3.6140629 8.88023824 1.9375 11.9375 C-1.11976176 13.6140629 -3.5906288 13.36528977 -7 13 C-8.9375 11.9375 -8.9375 11.9375 -10 10 C-10.36528977 6.5906288 -10.6140629 4.11976176 -8.9375 1.0625 C-5.88023824 -0.6140629 -3.4093712 -0.36528977 0 0 Z " fill="#090909" transform="translate(706,230)"/>
<path d="M0 0 C2.8125 0.875 2.8125 0.875 4.8125 2.875 C5.49223856 10.0122549 5.49223856 10.0122549 3.1875 12.9375 C-0.06028698 14.21952118 -1.88046839 13.93043562 -5.1875 12.875 C-7.4526631 10.76084778 -8.08181221 9.40343896 -8.6875 6.375 C-8.1875 3.875 -8.1875 3.875 -6.0625 1.5 C-3.1875 -0.125 -3.1875 -0.125 0 0 Z " fill="#0A0A0A" transform="translate(947.1875,178.125)"/>
<path d="M0 0 C4.35653019 1.39038198 4.35653019 1.39038198 5.9375 3.9375 C6.48374158 7.60512206 6.41648298 9.2633758 4.25 12.3125 C1.9375 13.9375 1.9375 13.9375 -0.5625 14.4375 C-3.93263879 13.76347224 -5.07927007 12.7287125 -7.0625 9.9375 C-7.67814756 6.24361466 -7.52312609 4.62843913 -5.4375 1.5 C-3.0625 -0.0625 -3.0625 -0.0625 0 0 Z " fill="#0A0A0A" transform="translate(703.0625,178.0625)"/>
<path d="M0 0 C1.875 1.0625 1.875 1.0625 3 3 C3.36528977 6.4093712 3.6140629 8.88023824 1.9375 11.9375 C-1.11976176 13.6140629 -3.5906288 13.36528977 -7 13 C-8.9375 11.9375 -8.9375 11.9375 -10 10 C-10.4375 6.5 -10.4375 6.5 -10 3 C-7.15121935 -0.39662308 -4.26361577 -0.54429137 0 0 Z " fill="#080808" transform="translate(901,437)"/>
<path d="M0 0 C1.8125 1.1875 1.8125 1.1875 3 3 C3.53852618 6.61581862 3.42236225 8.34111489 1.4375 11.4375 C-1 13 -1 13 -4.625 12.9375 C-8 12 -8 12 -10 9 C-10.54954205 3.72439634 -10.54954205 3.72439634 -8.625 1.1875 C-5.39144133 -1.17548518 -3.83034011 -1.12107515 0 0 Z " fill="#090909" transform="translate(706,437)"/>
<path d="M0 0 C3.375 0.9375 3.375 0.9375 5.375 3.9375 C5.91426206 9.1144158 5.91426206 9.1144158 4.1875 11.75 C1.78185358 13.32611317 0.26981608 13.86857581 -2.625 13.9375 C-5.4375 12.375 -5.4375 12.375 -7.625 9.9375 C-8.31460811 6.25959009 -8.08327813 4.65241389 -6.0625 1.5 C-3.625 -0.0625 -3.625 -0.0625 0 0 Z " fill="#0A0A0A" transform="translate(898.625,385.0625)"/>
<path d="M0 0 C2.4375 2.1875 2.4375 2.1875 4 5 C3.93107581 7.89481608 3.38861317 9.40685358 1.8125 11.8125 C-0.93062552 13.60972017 -2.79581126 13.45774125 -6 13 C-8.4375 11.4375 -8.4375 11.4375 -10 9 C-9.9375 5.375 -9.9375 5.375 -9 2 C-5.50434664 -0.33043558 -4.1134271 -0.58763244 0 0 Z " fill="#090909" transform="translate(949,385)"/>
<path d="M0 0 C1.9375 1.0625 1.9375 1.0625 3 3 C3.4375 6.5 3.4375 6.5 3 10 C0.76679398 12.66266871 -0.6200117 12.95347082 -4.0625 13.375 C-7 13 -7 13 -8.875 11.9375 C-10.64273274 8.8930714 -10.36823916 6.4368988 -10 3 C-7.77766882 -1.05248626 -4.20052866 -0.45005664 0 0 Z " fill="#080808" transform="translate(706,385)"/>
<path d="M0 0 C2.60964149 1.03012164 3.83498357 1.58694861 5.375 3.9375 C5.91352618 7.55331862 5.79736225 9.27861489 3.8125 12.375 C1.375 13.9375 1.375 13.9375 -2.25 13.875 C-5.625 12.9375 -5.625 12.9375 -7.625 9.9375 C-8.0625 7 -8.0625 7 -7.625 3.9375 C-5.12171555 1.14812589 -3.80877374 -0.09068509 0 0 Z " fill="#090909" transform="translate(703.625,281.0625)"/>
<path d="M0 0 C2.4375 2.1875 2.4375 2.1875 4 5 C3.93107581 7.89481608 3.38861317 9.40685358 1.8125 11.8125 C-0.93062552 13.60972017 -2.79581126 13.45774125 -6 13 C-8.4375 11.4375 -8.4375 11.4375 -10 9 C-9.9375 5.375 -9.9375 5.375 -9 2 C-5.50434664 -0.33043558 -4.1134271 -0.58763244 0 0 Z " fill="#090909" transform="translate(949,230)"/>
<path d="M0 0 C3 0.5625 3 0.5625 5.4375 2.125 C7 4.5625 7 4.5625 6.875 8.1875 C6 11.5625 6 11.5625 4 13.5625 C-2.12133891 14.11898536 -2.12133891 14.11898536 -4.875 12.375 C-6.37360729 9.96057715 -6.93182826 8.42571294 -7 5.5625 C-5.04123295 2.0367193 -4.01266543 0.75237477 0 0 Z " fill="#0A0A0A" transform="translate(654,126.4375)"/>
<path d="M0 0 C2 1.625 2 1.625 3 4 C2.87177883 7.14141856 2.4995896 9.21117432 0.8125 11.875 C-1.97669273 13.60622307 -3.79146522 13.52384241 -7 13 C-9.4375 10.8125 -9.4375 10.8125 -11 8 C-10.93182826 5.13678706 -10.37360729 3.60192285 -8.875 1.1875 C-5.85776705 -0.7234142 -3.46733097 -0.43341637 0 0 Z " fill="#090909" transform="translate(658,334)"/>
<path d="M0 0 C3.33959141 0.77067494 4.53369782 1.70679673 6.4375 4.5625 C6.22321429 10.77678571 6.22321429 10.77678571 3.4375 13.5625 C-2.68383891 14.11898536 -2.68383891 14.11898536 -5.4375 12.375 C-6.95653397 9.92766749 -7.5625 8.47438084 -7.5625 5.5625 C-5.2721375 2.53113787 -3.76355394 0.82614599 0 0 Z " fill="#090909" transform="translate(654.5625,281.4375)"/>
<path d="M0 0 C1.9375 1.0625 1.9375 1.0625 3 3 C3.4375 6.5 3.4375 6.5 3 10 C0.77728061 12.65016543 -0.6458146 12.94940209 -4.0625 13.4375 C-7 13 -7 13 -8.875 11.375 C-10.31414524 8.33680449 -10.42454541 6.32560568 -10 3 C-7.72054654 -1.02256493 -4.21158603 -0.45124136 0 0 Z " fill="#070707" transform="translate(901,179)"/>
<path d="M0 0 C1.9375 1.0625 1.9375 1.0625 3 3 C3.4375 6.5 3.4375 6.5 3 10 C1.4375 12 1.4375 12 -1 13 C-4.625 12.875 -4.625 12.875 -8 12 C-10.31282587 8.53076119 -10.42478586 7.07794425 -10 3 C-7.72054654 -1.02256493 -4.21158603 -0.45124136 0 0 Z " fill="#060606" transform="translate(901,334)"/>
<path d="M0 0 C3.5625 0.3125 3.5625 0.3125 5.4375 1.5 C6.95653397 3.94733251 7.5625 5.40061916 7.5625 8.3125 C5.27408743 11.34128134 3.73222398 13.02720147 0 13.9375 C-2.4375 13.3125 -2.4375 13.3125 -4.8125 11.1875 C-6.4375 8.3125 -6.4375 8.3125 -6.3125 5.125 C-5.03605468 1.02214003 -4.32440699 0.39312791 0 0 Z " fill="#080808" transform="translate(945.4375,281.6875)"/>
<path d="M0 0 C3.375 0.875 3.375 0.875 5.375 2.875 C5.92087156 8.87958716 5.92087156 8.87958716 4.3125 11.8125 C1.25523824 13.4890629 -1.2156288 13.24028977 -4.625 12.875 C-6.5625 11.75 -6.5625 11.75 -7.625 9.875 C-8.16352618 6.25918138 -8.04736225 4.53388511 -6.0625 1.4375 C-3.625 -0.125 -3.625 -0.125 0 0 Z " fill="#060606" transform="translate(898.625,282.125)"/>
<path d="M0 0 C3.375 0.875 3.375 0.875 5.375 2.875 C5.92087156 8.87958716 5.92087156 8.87958716 4.3125 11.8125 C1.25523824 13.4890629 -1.2156288 13.24028977 -4.625 12.875 C-6.5625 11.75 -6.5625 11.75 -7.625 9.875 C-8.16352618 6.25918138 -8.04736225 4.53388511 -6.0625 1.4375 C-3.625 -0.125 -3.625 -0.125 0 0 Z " fill="#070707" transform="translate(898.625,127.125)"/>
<path d="M0 0 C3.5625 0.3125 3.5625 0.3125 5.4375 1.5 C6.95653397 3.94733251 7.5625 5.40061916 7.5625 8.3125 C5.27408743 11.34128134 3.73222398 13.02720147 0 13.9375 C-2.4375 13.3125 -2.4375 13.3125 -4.8125 11.1875 C-6.4375 8.3125 -6.4375 8.3125 -6.3125 5.125 C-5.03605468 1.02214003 -4.32440699 0.39312791 0 0 Z " fill="#080808" transform="translate(945.4375,126.6875)"/>
<path d="M0 0 C1.9375 1.125 1.9375 1.125 3 3 C3.53852618 6.61581862 3.42236225 8.34111489 1.4375 11.4375 C-1 13 -1 13 -4.625 12.875 C-8 12 -8 12 -10 10 C-10.54587156 3.99541284 -10.54587156 3.99541284 -8.9375 1.0625 C-5.88023824 -0.6140629 -3.4093712 -0.36528977 0 0 Z " fill="#060606" transform="translate(706,127)"/>
<path d="M0 0 C2.4375 1.625 2.4375 1.625 4 4 C3.93498241 7.18586196 3.51914046 9.18030454 1.8125 11.875 C-0.97669273 13.60622307 -2.79146522 13.52384241 -6 13 C-8.4375 10.8125 -8.4375 10.8125 -10 8 C-9.93107581 5.10518392 -9.38861317 3.59314642 -7.8125 1.1875 C-5.06937448 -0.60972017 -3.20418874 -0.45774125 0 0 Z " fill="#070707" transform="translate(657,179)"/>
<path d="M0 0 C3.625 0.375 3.625 0.375 7 1 C8.32561852 7.38707103 8.32561852 7.38707103 6.9375 10 C3.99948754 11.51639353 2.09843192 10.92293717 -1 10 C-3 7 -3 7 -2.75 4.4375 C-2 2 -2 2 0 0 Z " fill="#111111" transform="translate(665,206)"/>
<path d="M0 0 C2.5625 0.3125 2.5625 0.3125 4.375 1.5 C5.98775784 3.96157776 5.9959014 5.42315736 5.5625 8.3125 C4.4375 10.1875 4.4375 10.1875 2.5625 11.3125 C-0.5 11.1875 -0.5 11.1875 -3.4375 10.3125 C-5.4375 7.3125 -5.4375 7.3125 -5.1875 4.75 C-4.19253762 1.51637226 -3.41216263 0.43745675 0 0 Z " fill="#0F0F0F" transform="translate(667.4375,463.6875)"/>
<path d="M0 0 C2.4375 0.75 2.4375 0.75 4.4375 2.75 C4.0625 6.375 4.0625 6.375 3.4375 9.75 C-2.94957103 11.07561852 -2.94957103 11.07561852 -5.5625 9.6875 C-7.07889353 6.74948754 -6.48543717 4.84843192 -5.5625 1.75 C-2.5625 -0.25 -2.5625 -0.25 0 0 Z " fill="#0F0F0F" transform="translate(668.5625,412.25)"/>
<path d="M0 0 C1.875 1.125 1.875 1.125 3 3 C2.875 6.0625 2.875 6.0625 2 9 C-1 11 -1 11 -3.5625 10.75 C-6 10 -6 10 -8 8 C-7.75 4.4375 -7.75 4.4375 -7 1 C-4.45132831 -0.27433584 -2.82594567 -0.27570202 0 0 Z " fill="#0F0F0F" transform="translate(935,412)"/>
<path d="M0 0 C2 3 2 3 1.75 5.5625 C1 8 1 8 -1 10 C-4.625 9.625 -4.625 9.625 -8 9 C-9.32561852 2.61292897 -9.32561852 2.61292897 -7.9375 0 C-4.99948754 -1.51639353 -3.09843192 -0.92293717 0 0 Z " fill="#0E0E0E" transform="translate(936,361)"/>
<path d="M0 0 C2.375 0.875 2.375 0.875 4.375 3.875 C4.0508631 7.19740324 3.76723697 8.48276303 1.375 10.875 C-2.25 10.5 -2.25 10.5 -5.625 9.875 C-5.955 7.565 -6.285 5.255 -6.625 2.875 C-4.28062075 0.70427848 -3.2584281 -0.15516324 0 0 Z " fill="#0E0E0E" transform="translate(933.625,205.125)"/>
<path d="M0 0 C1.875 1.125 1.875 1.125 3 3 C2.875 6.0625 2.875 6.0625 2 9 C-1 11 -1 11 -3.5625 10.75 C-6 10 -6 10 -8 8 C-8.36487512 5.15397406 -8.40199375 3.6135694 -6.8125 1.1875 C-4.35092224 -0.42525784 -2.88934264 -0.4334014 0 0 Z " fill="#0E0E0E" transform="translate(935,102)"/>
<path d="M0 0 C2.4375 0.75 2.4375 0.75 4.4375 2.75 C4.80237512 5.59602594 4.83949375 7.1364306 3.25 9.5625 C0.76512734 11.19052002 -0.64961432 11.25975499 -3.5625 10.75 C-5.4375 9.0625 -5.4375 9.0625 -6.5625 6.75 C-6.4375 4.125 -6.4375 4.125 -5.5625 1.75 C-2.5625 -0.25 -2.5625 -0.25 0 0 Z " fill="#0C0C0C" transform="translate(668.5625,309.25)"/>
<path d="M0 0 C2.9375 0.8125 2.9375 0.8125 4.9375 2.8125 C4.75 5.8125 4.75 5.8125 3.9375 8.8125 C0.9375 10.8125 0.9375 10.8125 -1.625 10.5625 C-4.0625 9.8125 -4.0625 9.8125 -6.0625 7.8125 C-6.4258156 4.97863833 -6.4193671 3.40727849 -4.9375 0.9375 C-3.0625 -0.1875 -3.0625 -0.1875 0 0 Z " fill="#0B0B0B" transform="translate(933.0625,257.1875)"/>
<path d="M0 0 C2 2 2 2 2.3125 5.5 C2.1578125 7.2325 2.1578125 7.2325 2 9 C-1 11 -1 11 -3.5625 10.75 C-6 10 -6 10 -8 8 C-7.75 4.4375 -7.75 4.4375 -7 1 C-4.48718205 -0.25640898 -2.78302919 -0.20872719 0 0 Z " fill="#0C0C0C" transform="translate(914,464)"/>
<path d="M0 0 C3.0625 0.3125 3.0625 0.3125 5 1.5 C6.0625 3.3125 6.0625 3.3125 5.875 5.875 C5.0625 8.3125 5.0625 8.3125 3.0625 10.3125 C0.0625 10.625 0.0625 10.625 -2.9375 10.3125 C-5.08665785 7.08876323 -5.32036803 6.04546326 -4.9375 2.3125 C-2.9375 0.3125 -2.9375 0.3125 0 0 Z " fill="#0D0D0D" transform="translate(931.9375,463.6875)"/>
<path d="M0 0 C2.4375 0.75 2.4375 0.75 4.4375 2.75 C4.0625 6.375 4.0625 6.375 3.4375 9.75 C0.0625 10.375 0.0625 10.375 -3.5625 10.75 C-5.5625 8.75 -5.5625 8.75 -5.875 5.25 C-5.771875 4.095 -5.66875 2.94 -5.5625 1.75 C-2.5625 -0.25 -2.5625 -0.25 0 0 Z " fill="#0C0C0C" transform="translate(689.5625,360.25)"/>
<path d="M0 0 C3 0.25 3 0.25 5 2.25 C5.33661952 5.4142235 5.49943411 7.43513382 3.8125 10.1875 C2 11.25 2 11.25 -0.5625 11.0625 C-3 10.25 -3 10.25 -5 8.25 C-5.25 5.25 -5.25 5.25 -5 2.25 C-3 0.25 -3 0.25 0 0 Z " fill="#0C0C0C" transform="translate(911,205.75)"/>
<path d="M0 0 C0.928125 0.20625 1.85625 0.4125 2.8125 0.625 C4.13811852 7.01207103 4.13811852 7.01207103 2.75 9.625 C-0.12817863 11.11051155 -2.1327585 10.42188909 -5.1875 9.625 C-6.1875 8.625 -6.1875 8.625 -6.4375 5.1875 C-6.355 4.011875 -6.2725 2.83625 -6.1875 1.625 C-3.1875 -0.375 -3.1875 -0.375 0 0 Z " fill="#0B0B0B" transform="translate(690.1875,102.375)"/>
<path d="M0 0 C0.99 0.103125 1.98 0.20625 3 0.3125 C5.14915785 3.53623677 5.38286803 4.57953674 5 8.3125 C3 10.3125 3 10.3125 0.0625 10.625 C-3 10.3125 -3 10.3125 -4.9375 9.125 C-6 7.3125 -6 7.3125 -5.8125 4.75 C-4.61582559 1.15997676 -3.79303534 0.39510785 0 0 Z " fill="#0B0B0B" transform="translate(668,360.6875)"/>
<path d="M0 0 C1 1 1 1 1.25 4.4375 C1.1675 5.613125 1.085 6.78875 1 8 C-2 10 -2 10 -4.5625 9.75 C-7 9 -7 9 -9 7 C-8.75 3.4375 -8.75 3.4375 -8 0 C-5.11795733 -1.44102133 -3.08226581 -0.65580124 0 0 Z " fill="#0A0A0A" transform="translate(915,310)"/>
<path d="M0 0 C0.66 0.66 1.32 1.32 2 2 C1.625 5.625 1.625 5.625 1 9 C-5.38707103 10.32561852 -5.38707103 10.32561852 -8 8.9375 C-9.49870491 6.03375925 -8.86683331 4.06725634 -8 1 C-5.23749964 -0.38125018 -3.05268901 -0.19079306 0 0 Z " fill="#0A0A0A" transform="translate(671,258)"/>
<path d="M0 0 C3.625 0.375 3.625 0.375 7 1 C8.32561852 7.38707103 8.32561852 7.38707103 6.9375 10 C4.03375925 11.49870491 2.06725634 10.86683331 -1 10 C-2.38125018 7.23749964 -2.19079306 5.05268901 -2 2 C-1.34 1.34 -0.68 0.68 0 0 Z " fill="#0A0A0A" transform="translate(686,257)"/>
<path d="M0 0 C2.4375 0.8125 2.4375 0.8125 4.4375 2.8125 C4.75 5.8125 4.75 5.8125 4.4375 8.8125 C1.21376323 10.96165785 0.17046326 11.19536803 -3.5625 10.8125 C-5.5625 8.8125 -5.5625 8.8125 -5.875 5.875 C-5.5625 2.8125 -5.5625 2.8125 -4.375 0.875 C-2.5625 -0.1875 -2.5625 -0.1875 0 0 Z " fill="#0A0A0A" transform="translate(689.5625,205.1875)"/>
<path d="M0 0 C3 0.25 3 0.25 5 2.25 C4.42307692 8.82692308 4.42307692 8.82692308 3 10.25 C-2.25450902 10.70691383 -2.25450902 10.70691383 -4.9375 9.0625 C-6 7.25 -6 7.25 -5.8125 4.6875 C-4.61374094 1.09122283 -3.8124642 0.31770535 0 0 Z " fill="#0B0B0B" transform="translate(668,102.75)"/>
<path d="M0 0 C2.3125 1.25 2.3125 1.25 3.3125 2.25 C3.5 5.1875 3.5 5.1875 3.3125 8.25 C1.3125 10.25 1.3125 10.25 -1.6875 10.5 C-4.6875 10.25 -4.6875 10.25 -6.6875 8.25 C-7.0625 5.3125 -7.0625 5.3125 -6.6875 2.25 C-4.35550923 -0.51384091 -3.52665203 -0.98418196 0 0 Z " fill="#090909" transform="translate(690.6875,463.75)"/>
<path d="M0 0 C1.875 0.8125 1.875 0.8125 3.875 2.8125 C4.125 5.8125 4.125 5.8125 3.875 8.8125 C3.215 9.4725 2.555 10.1325 1.875 10.8125 C-4.70192308 10.23557692 -4.70192308 10.23557692 -6.125 8.8125 C-6.4375 5.9375 -6.4375 5.9375 -6.125 2.8125 C-4.07702207 0.54509586 -3.08300551 -0.2720299 0 0 Z " fill="#090909" transform="translate(912.125,412.1875)"/>
<path d="M0 0 C3 0.25 3 0.25 5 2.25 C5.375 5.1875 5.375 5.1875 5 8.25 C3.3125 10.25 3.3125 10.25 1 11.25 C-1.39263407 10.58228817 -3.22097385 10.02902615 -5 8.25 C-5.1875 5.3125 -5.1875 5.3125 -5 2.25 C-3 0.25 -3 0.25 0 0 Z " fill="#090909" transform="translate(911,360.75)"/>
<path d="M0 0 C3.125 0.25 3.125 0.25 5.0625 1.4375 C6.125 3.25 6.125 3.25 5.9375 5.8125 C5.125 8.25 5.125 8.25 3.125 10.25 C0.125 10.5625 0.125 10.5625 -2.875 10.25 C-4.875 7.25 -4.875 7.25 -4.5625 4.125 C-3.65202703 0.31756757 -3.65202703 0.31756757 0 0 Z " fill="#090909" transform="translate(931.875,308.75)"/>
<path d="M0 0 C1.39431504 2.78863007 1.25660094 4.92078868 1 8 C-2 10 -2 10 -5.1875 9.625 C-6.5796875 9.315625 -6.5796875 9.315625 -8 9 C-9.32561852 2.61292897 -9.32561852 2.61292897 -7.9375 0 C-5.03375925 -1.49870491 -3.06725634 -0.86683331 0 0 Z " fill="#090909" transform="translate(915,155)"/>
<path d="M0 0 C1.875 1.1875 1.875 1.1875 3 3 C2.75546876 6.34192692 2.39456443 7.60543557 0 10 C-3 10.25 -3 10.25 -6 10 C-6.66 9.34 -7.32 8.68 -8 8 C-7.75 4.4375 -7.75 4.4375 -7 1 C-4.45132831 -0.27433584 -2.82594567 -0.27570202 0 0 Z " fill="#090909" transform="translate(935,154)"/>
<path d="M0 0 C2.4375 0.75 2.4375 0.75 4.4375 2.75 C4.8008156 5.58386167 4.7943671 7.15522151 3.3125 9.625 C1.4375 10.75 1.4375 10.75 -1.6875 10.5 C-4.5625 9.75 -4.5625 9.75 -5.5625 8.75 C-5.8125 5.3125 -5.8125 5.3125 -5.5625 1.75 C-2.5625 -0.25 -2.5625 -0.25 0 0 Z " fill="#060606" transform="translate(668.5625,154.25)"/>
<path d="M0 0 C3 0.25 3 0.25 5 2.25 C5.25 5.25 5.25 5.25 5 8.25 C3 10.25 3 10.25 0 10.5 C-3 10.25 -3 10.25 -5 8.25 C-5.25 5.25 -5.25 5.25 -5 2.25 C-3 0.25 -3 0.25 0 0 Z " fill="#050505" transform="translate(689,308.75)"/>
<path d="M0 0 C3 0.25 3 0.25 5 2.25 C5.25 5.25 5.25 5.25 5 8.25 C3 10.25 3 10.25 0 10.5 C-3 10.25 -3 10.25 -5 8.25 C-5.25 5.25 -5.25 5.25 -5 2.25 C-3 0.25 -3 0.25 0 0 Z " fill="#050505" transform="translate(911,257.75)"/>
<path d="M0 0 C3 0.25 3 0.25 5 2.25 C5.25 5.25 5.25 5.25 5 8.25 C3 10.25 3 10.25 0 10.5 C-3 10.25 -3 10.25 -5 8.25 C-5.25 5.25 -5.25 5.25 -5 2.25 C-3 0.25 -3 0.25 0 0 Z " fill="#050505" transform="translate(689,153.75)"/>
<path d="M0 0 C3 0.25 3 0.25 5 2.25 C5.25 5.25 5.25 5.25 5 8.25 C3 10.25 3 10.25 0 10.5 C-3 10.25 -3 10.25 -5 8.25 C-5.25 5.25 -5.25 5.25 -5 2.25 C-3 0.25 -3 0.25 0 0 Z " fill="#050505" transform="translate(911,102.75)"/>
<path d="M0 0 C6.57692308 0.57692308 6.57692308 0.57692308 8 2 C8.1875 4.9375 8.1875 4.9375 8 8 C6 10 6 10 3 10.25 C0 10 0 10 -2 8 C-2.25 5 -2.25 5 -2 2 C-1.34 1.34 -0.68 0.68 0 0 Z " fill="#050505" transform="translate(686,412)"/>
<path d="M0 0 C2.5625 0.1875 2.5625 0.1875 4.5625 2.1875 C4.23278521 5.48464793 3.9398161 6.8101839 1.5625 9.1875 C-1.37203261 8.82068342 -2.30187246 8.32312754 -4.4375 6.1875 C-3.71780303 0.28598485 -3.71780303 0.28598485 0 0 Z " fill="#141414" transform="translate(678.4375,438.8125)"/>
<path d="M0 0 C0.6875 2.3125 0.6875 2.3125 1 5 C-0.1875 6.875 -0.1875 6.875 -2 8 C-4.97397616 7.72963853 -5.85446026 7.14553974 -8 5 C-7.75 2.4375 -7.75 2.4375 -7 0 C-4.3333581 -1.33332095 -2.83319697 -0.67102033 0 0 Z " fill="#111111" transform="translate(682,285)"/>
<path d="M0 0 C1.1446875 0.3403125 1.1446875 0.3403125 2.3125 0.6875 C3 3 3 3 3.3125 5.6875 C2.1875 7.5625 2.1875 7.5625 0.3125 8.6875 C-2.375 8.375 -2.375 8.375 -4.6875 7.6875 C-5.375 5.375 -5.375 5.375 -5.6875 2.6875 C-4.0011022 -0.12316299 -3.27764429 -0.38112143 0 0 Z " fill="#111111" transform="translate(679.6875,129.3125)"/>
<path d="M0 0 C2.5625 0.1875 2.5625 0.1875 4.5625 2.1875 C4.00694444 6.74305556 4.00694444 6.74305556 2.5625 8.1875 C0.125 8.375 0.125 8.375 -2.4375 8.1875 C-3.0975 7.5275 -3.7575 6.8675 -4.4375 6.1875 C-3.71780303 0.28598485 -3.71780303 0.28598485 0 0 Z " fill="#0E0E0E" transform="translate(678.4375,490.8125)"/>
<path d="M0 0 C2.5625 0.1875 2.5625 0.1875 4.5625 2.1875 C4.00694444 6.74305556 4.00694444 6.74305556 2.5625 8.1875 C0.125 8.375 0.125 8.375 -2.4375 8.1875 C-3.0975 7.5275 -3.7575 6.8675 -4.4375 6.1875 C-3.71780303 0.28598485 -3.71780303 0.28598485 0 0 Z " fill="#0F0F0F" transform="translate(678.4375,335.8125)"/>
<path d="M0 0 C4.55555556 0.55555556 4.55555556 0.55555556 6 2 C6.1875 4.4375 6.1875 4.4375 6 7 C5.34 7.66 4.68 8.32 4 9 C-0.55555556 8.44444444 -0.55555556 8.44444444 -2 7 C-2.1875 4.5625 -2.1875 4.5625 -2 2 C-1.34 1.34 -0.68 0.68 0 0 Z " fill="#0E0E0E" transform="translate(920,284)"/>
<path d="M0 0 C2.5625 0.1875 2.5625 0.1875 4.5625 2.1875 C4.00694444 6.74305556 4.00694444 6.74305556 2.5625 8.1875 C0.125 8.375 0.125 8.375 -2.4375 8.1875 C-3.0975 7.5275 -3.7575 6.8675 -4.4375 6.1875 C-3.71780303 0.28598485 -3.71780303 0.28598485 0 0 Z " fill="#0E0E0E" transform="translate(678.4375,180.8125)"/>
<path d="M0 0 C4.55555556 0.55555556 4.55555556 0.55555556 6 2 C6.1875 4.4375 6.1875 4.4375 6 7 C5.34 7.66 4.68 8.32 4 9 C-0.55555556 8.44444444 -0.55555556 8.44444444 -2 7 C-2.1875 4.5625 -2.1875 4.5625 -2 2 C-1.34 1.34 -0.68 0.68 0 0 Z " fill="#0E0E0E" transform="translate(920,129)"/>
<path d="M0 0 C4.55555556 0.55555556 4.55555556 0.55555556 6 2 C6.1875 4.4375 6.1875 4.4375 6 7 C5.34 7.66 4.68 8.32 4 9 C-0.55555556 8.44444444 -0.55555556 8.44444444 -2 7 C-2.1875 4.5625 -2.1875 4.5625 -2 2 C-1.34 1.34 -0.68 0.68 0 0 Z " fill="#0F0F0F" transform="translate(920,232)"/>
<path d="M0 0 C2.5625 0.1875 2.5625 0.1875 4.5625 2.1875 C4.00694444 6.74305556 4.00694444 6.74305556 2.5625 8.1875 C0.125 8.4375 0.125 8.4375 -2.4375 8.1875 C-4.4375 5.1875 -4.4375 5.1875 -4.125 3.0625 C-3.12124957 0.32499884 -2.99341211 0.23026247 0 0 Z " fill="#0E0E0E" transform="translate(678.4375,232.8125)"/>
<path d="M0 0 C2.5625 0.1875 2.5625 0.1875 4.5625 2.1875 C4.00694444 6.74305556 4.00694444 6.74305556 2.5625 8.1875 C0.125 8.4375 0.125 8.4375 -2.4375 8.1875 C-4.4375 5.1875 -4.4375 5.1875 -4.125 3.0625 C-3.12124957 0.32499884 -2.99341211 0.23026247 0 0 Z " fill="#0D0D0D" transform="translate(678.4375,77.8125)"/>
<path d="M0 0 C2.5625 0.1875 2.5625 0.1875 4.5625 2.1875 C4.1875 4.8125 4.1875 4.8125 3.5625 7.1875 C1.25 7.875 1.25 7.875 -1.4375 8.1875 C-3.3125 7 -3.3125 7 -4.4375 5.1875 C-4.02450713 1.6770606 -3.6499568 0.28076591 0 0 Z " fill="#0C0C0C" transform="translate(678.4375,387.8125)"/>
<path d="M0 0 C3 0.125 3 0.125 4 1.125 C4.1875 3.5625 4.1875 3.5625 4 6.125 C2 8.125 2 8.125 -0.5625 8.3125 C-3 8.125 -3 8.125 -4 7.125 C-4.125 4.125 -4.125 4.125 -4 1.125 C-3 0.125 -3 0.125 0 0 Z " fill="#0D0D0D" transform="translate(922,77.875)"/>
<path d="M0 0 C2.33944736 0.28730055 4.6739143 0.61936779 7 1 C7.125 3.375 7.125 3.375 7 6 C5 8 5 8 2.4375 8.1875 C0 8 0 8 -1 7 C-1.125 4 -1.125 4 -1 1 C-0.67 0.67 -0.34 0.34 0 0 Z " fill="#0C0C0C" transform="translate(919,491)"/>
<path d="M0 0 C2.5625 0.1875 2.5625 0.1875 4.5625 2.1875 C4.1875 5.3125 4.1875 5.3125 3.5625 8.1875 C1.56295254 8.23004356 -0.43791636 8.22830783 -2.4375 8.1875 C-3.4375 7.1875 -3.4375 7.1875 -3.5625 4.1875 C-3.39891479 0.26145498 -3.39891479 0.26145498 0 0 Z " fill="#0B0B0B" transform="translate(921.4375,335.8125)"/>
<path d="M0 0 C4.55555556 0.55555556 4.55555556 0.55555556 6 2 C6.125 4.5 6.125 4.5 6 7 C5 8 5 8 2 8.125 C-1 8 -1 8 -2 7 C-2.1875 4.5625 -2.1875 4.5625 -2 2 C-1.34 1.34 -0.68 0.68 0 0 Z " fill="#070707" transform="translate(920,439)"/>
<path d="M0 0 C3 0.125 3 0.125 4 1.125 C4.1875 3.5625 4.1875 3.5625 4 6.125 C3.34 6.785 2.68 7.445 2 8.125 C-2.55555556 7.56944444 -2.55555556 7.56944444 -4 6.125 C-4.125 3.625 -4.125 3.625 -4 1.125 C-3 0.125 -3 0.125 0 0 Z " fill="#060606" transform="translate(922,387.875)"/>
<path d="M0 0 C4.55555556 0.55555556 4.55555556 0.55555556 6 2 C6.125 4.5 6.125 4.5 6 7 C5 8 5 8 2 8.125 C-1 8 -1 8 -2 7 C-2.1875 4.5625 -2.1875 4.5625 -2 2 C-1.34 1.34 -0.68 0.68 0 0 Z " fill="#080808" transform="translate(920,181)"/>
</svg>
